<?xml version="1.0" encoding="utf-8"?>
<!-- Generator: Adobe Illustrator 22.0.0, SVG Export Plug-In . SVG Version: 6.00 Build 0)  -->
<svg version="1.1" id="Layer_1" xmlns="http://www.w3.org/2000/svg" xmlns:xlink="http://www.w3.org/1999/xlink" x="0px" y="0px"
	 viewBox="0 0 1133.9 1133.9" style="enable-background:new 0 0 1133.9 1133.9;" xml:space="preserve">
<style type="text/css">
	.st0{fill-rule:evenodd;clip-rule:evenodd;}
	.st1{fill:#010101;}
	.st2{opacity:0.8;}
</style>
<path d="M686,582.7c25.1-31.9,47.6-91,47.6-91s-8.5,46.8-23.8,74.8c-17.6,31.9-35.6,57.2-35.6,57.2l58.2-44.7
	c0,0-14.1,20.1-38.5,41.7c-8.5,7.4-17,13.9-25,19.5c2.2-0.8,4.4-1.7,6.6-2.6c0.2-0.1,0.4-0.2,0.6-0.3c1.6-0.7,3.3-1.4,4.9-2.1
	c0.3-0.1,0.6-0.3,0.9-0.4c1.6-0.7,3.2-1.4,4.8-2.1c0.3-0.1,0.6-0.3,0.9-0.4c1.6-0.7,3.2-1.5,4.9-2.3c0.2-0.1,0.3-0.2,0.5-0.3
	c8.8-4.3,17.3-9,25.6-14.2c0.3-0.2,0.5-0.4,0.8-0.5c1.4-0.9,2.8-1.8,4.2-2.7c0.4-0.3,0.8-0.5,1.2-0.7c1.3-0.9,2.7-1.8,4-2.7
	c0.4-0.3,0.8-0.6,1.2-0.8c1.4-1,2.7-1.9,4-2.8c0.3-0.2,0.7-0.5,1-0.8c1.4-1,2.7-2,4.1-3c0.1-0.1,0.2-0.2,0.4-0.3
	c6-4.6,11.8-9.4,17.5-14.4c0.4-0.3,0.8-0.7,1.1-1c1.1-1,2.2-2,3.3-3.1c0.5-0.4,1-0.8,1.4-1.3c1.1-1,2.1-2,3.1-3c0.5-0.5,1-1,1.5-1.5
	c1-1,2-1.9,3-3c0.5-0.5,1-1,1.5-1.5c1-1.1,2-2.1,3-3.1c0.4-0.5,0.8-0.9,1.3-1.3c1-1.1,2.1-2.2,3.1-3.3c0-0.1,0.1-0.1,0.1-0.1
	c2.4-2.7,4.8-5.4,7.1-8.2c0.3-0.3,0.5-0.6,0.7-0.8c0.9-1.1,1.7-2.1,2.6-3.2c0.5-0.6,1-1.3,1.5-1.8c0.8-1,1.6-2,2.4-3
	c0.5-0.7,1.1-1.4,1.6-2.1c0.7-1,1.5-2,2.2-3c0.5-0.7,1.1-1.5,1.6-2.2c0,0,0,0,0.1-0.1c6-22.7,14.8-61.8,14.8-96.7
	c0-53.1,0-70.3,0-70.3s10.9,71.8,12.7,120.1v0c0.1-0.2,0.2-0.5,0.3-0.7c0.4-0.9,0.9-1.9,1.3-2.8c0.5-1.1,1-2.2,1.5-3.3
	c0.4-0.9,0.8-1.8,1.1-2.7c0.5-1.3,1.1-2.6,1.6-3.9c0.3-0.7,0.6-1.5,0.9-2.2c0.8-1.9,1.6-4,2.3-6c0.3-0.7,0.5-1.4,0.8-2.1
	c0.5-1.4,1-2.8,1.5-4.1c0.3-0.9,0.6-1.7,0.8-2.6c0.4-1.3,0.8-2.5,1.2-3.7c0.3-0.9,0.6-1.8,0.8-2.7c0.4-1.2,0.7-2.5,1.1-3.7
	c0.3-0.9,0.5-1.9,0.8-2.8c0.3-1.2,0.7-2.5,1-3.7c0.2-0.9,0.5-1.9,0.7-2.7c0.3-1.3,0.6-2.6,0.9-4c0.2-0.9,0.4-1.7,0.6-2.6
	c0.3-1.5,0.6-3,1-4.5c0.1-0.7,0.3-1.3,0.4-2c0.5-2.2,0.9-4.4,1.3-6.6c0.1-0.4,0.2-0.9,0.2-1.3c0.3-1.8,0.6-3.6,0.9-5.4
	c0.1-0.8,0.2-1.6,0.3-2.4c0.2-1.4,0.4-2.9,0.6-4.3c0.1-0.9,0.2-1.8,0.3-2.7c0.2-1.3,0.3-2.7,0.5-4.1c0.1-0.9,0.2-1.9,0.3-2.8
	c0.1-1.4,0.3-2.7,0.4-4.1c0.1-1,0.1-1.9,0.2-2.8c0.1-1.4,0.2-2.8,0.3-4.2c0-0.9,0.1-1.8,0.2-2.7c0.1-1.6,0.1-3.1,0.2-4.6
	c0-0.8,0.1-1.5,0.1-2.3c0.1-2.3,0.1-4.6,0.1-7c0-1.5,0-2.9,0-4.4c-6.8-20.1-16.2-43.6-27.9-63.5c-27-45.7-35.7-60.6-35.7-60.6
	s33.2,40.9,59.2,78.2c-16-89.8-73.8-165.1-152.6-204.9c53.6,39.5,88.4,103.1,88.4,174.8c0,1.8,0,3.6-0.1,5.3c0,0.6,0,1.2-0.1,1.8
	c0,1.2-0.1,2.4-0.1,3.6c0,0.7-0.1,1.4-0.1,2.1c-0.1,1-0.1,2.1-0.2,3.2c-0.1,0.7-0.1,1.4-0.2,2.2c-0.1,1-0.2,2-0.3,3.1
	c-0.1,0.7-0.1,1.4-0.2,2.2c-0.1,1.1-0.2,2.1-0.3,3.1c-0.1,0.7-0.2,1.4-0.3,2.2c-0.1,1.1-0.3,2-0.4,3.1c-0.1,0.7-0.2,1.4-0.3,2.1
	c-0.2,1.1-0.3,2.1-0.6,3.2c-0.1,0.6-0.2,1.2-0.3,1.9c-0.2,1.3-0.5,2.6-0.8,3.9c-0.1,0.4-0.1,0.8-0.2,1.2c-0.4,1.7-0.7,3.3-1.1,5
	c-0.1,0.5-0.3,1-0.4,1.5c-0.3,1.2-0.5,2.3-0.8,3.5c-0.2,0.6-0.3,1.3-0.5,1.9c-0.3,1-0.5,2-0.8,3c-0.2,0.7-0.4,1.4-0.6,2.1
	c-0.3,0.9-0.6,1.9-0.9,2.8c-0.2,0.7-0.4,1.4-0.7,2.1c-0.3,0.9-0.6,1.8-0.9,2.7c-0.2,0.7-0.5,1.4-0.7,2.1c-0.3,0.9-0.6,1.8-0.9,2.7
	c-0.3,0.7-0.5,1.4-0.8,2.1c-0.3,0.9-0.7,1.8-1,2.7c-0.3,0.7-0.5,1.3-0.8,2c-0.4,1-0.8,2-1.2,2.9c-0.2,0.6-0.5,1.2-0.7,1.8
	c-0.6,1.5-1.3,3-2,4.5c-0.2,0.5-0.5,1-0.7,1.5c-0.5,1-0.9,2-1.4,3c-0.3,0.7-0.6,1.3-1,2c-0.4,0.8-0.8,1.7-1.2,2.5
	c-0.3,0.6-0.7,1.4-1.1,2c-0.4,0.8-0.8,1.6-1.2,2.4c-0.4,0.7-0.8,1.4-1.2,2.1c-0.4,0.7-0.8,1.5-1.2,2.2c-0.4,0.7-0.8,1.4-1.2,2.1
	c-0.4,0.7-0.8,1.4-1.3,2.2c-0.4,0.7-0.8,1.4-1.3,2.1c-0.4,0.7-0.9,1.4-1.3,2.1c-0.4,0.7-0.9,1.4-1.3,2.1c-0.4,0.7-0.9,1.3-1.3,2
	c-0.5,0.7-0.9,1.4-1.4,2.1c-0.5,0.7-1,1.3-1.4,2c-0.9,1.3-1.9,2.6-2.8,3.9c-0.5,0.6-0.9,1.3-1.4,1.9c-0.5,0.7-1.1,1.4-1.6,2.1
	c-0.4,0.6-0.9,1.2-1.3,1.8c-0.6,0.7-1.1,1.4-1.7,2.1c-0.5,0.6-0.9,1.1-1.4,1.7c-0.6,0.7-1.2,1.4-1.8,2.1c-0.4,0.6-0.9,1.1-1.4,1.7
	c-0.6,0.7-1.2,1.4-1.8,2.1c-0.5,0.5-0.9,1.1-1.4,1.6c-0.6,0.7-1.2,1.4-1.9,2.1c-0.4,0.5-0.9,1-1.4,1.5c-0.6,0.7-1.3,1.4-2,2.1
	c-0.1,0.1-0.3,0.3-0.4,0.4c3.8-9.3,7.1-19.3,9.5-29.8c14.6-63.5-9.4-142.7-9.4-142.7s3.5,63.3-18.8,147.9
	c-10.9,41.4-34.5,62.6-48.4,71.7c-0.3,0.2-0.6,0.3-0.9,0.4c-0.4,0.2-0.8,0.3-1.1,0.5c-1.1,0.5-2.3,1-3.4,1.4
	c-0.2,0.1-0.5,0.2-0.7,0.3c-5.5,2.3-11.1,4.3-16.8,6.2c-0.2,0.1-0.3,0.1-0.5,0.1c-1.2,0.4-2.5,0.8-3.7,1.2c-0.4,0.1-0.7,0.2-1.1,0.3
	c-1.2,0.4-2.4,0.7-3.5,1c-0.4,0.1-0.9,0.2-1.3,0.3c-1.2,0.3-2.3,0.6-3.5,0.9c-0.4,0.1-0.9,0.2-1.3,0.3c-1.2,0.3-2.4,0.6-3.5,0.8
	c-0.1,0-0.3,0.1-0.5,0.1c1.7,5.7,3.3,14.3,4.1,26.9c-5-9-10.5-18.5-15.8-29.6c-0.1-0.3-0.3-0.6-0.4-0.9c-0.8-1.6-1.6-3.3-2.3-5
	c-19.3-43.8-31.5-103,72.2-67.4c0,0-9.4-48.6-44.4-69.8c-0.2-0.1-28.4-18.9-60.3-19.7c-32-0.7-32.8-1.5-46.9-5.5
	c-14-3.9-22.7-8.6-22.7-8.6s8.7,9.3,25.8,21.9c6.5,4.7,12.6,8.9,17.8,12.2c-37.4,15.6-48.2,44.5-52.3,55.8
	c-5.4,14.9-5.4,14.9-5.4,14.9s16.3-14.3,31.9-23.1c15.6-8.8,20.3-8.8,20.3-8.8s-28.7,47.6-30.3,102.9c0,0-0.1,0-0.1,0l0,0
	c0,1.6,0,3.3,0,5c0,0.2,0,0.4,0,0.5c0,13.6,1.5,25.3,3.5,35.9c0,0.1,0,0.1,0,0.1c-6.8-17.9-9.8-32.9-11-43.9h0
	c-6.9-2.3-13.6-5-20.1-7.9c-14-9.2-37.3-30.4-48.1-71.5C407.1,334.4,410.6,271,410.6,271s-24,79.2-9.4,142.7
	c2.4,10.4,5.6,20.3,9.4,29.6c0-0.1-0.1-0.1-0.1-0.2c0,0,0,0,0,0c-0.8-0.9-1.6-1.7-2.4-2.6c-0.3-0.3-0.5-0.6-0.8-0.9
	c-0.8-0.8-1.5-1.6-2.2-2.4c-0.3-0.3-0.6-0.6-0.9-1c-0.7-0.8-1.4-1.7-2.2-2.5c-0.2-0.3-0.5-0.6-0.7-0.9c-2.3-2.7-4.6-5.5-6.7-8.4
	c-0.3-0.4-0.6-0.8-0.9-1.2c-0.6-0.8-1.2-1.6-1.8-2.4c-0.4-0.5-0.7-1-1.1-1.5c-0.6-0.8-1.1-1.5-1.7-2.3c-0.3-0.5-0.7-1-1.1-1.6
	c-0.5-0.8-1.1-1.5-1.6-2.3c-0.3-0.5-0.7-1-1-1.5c-0.9-1.4-1.8-2.8-2.8-4.3c-0.4-0.6-0.7-1.2-1.1-1.8c-0.4-0.7-0.9-1.5-1.3-2.2
	c-0.4-0.6-0.8-1.3-1.1-1.9c-0.4-0.7-0.9-1.4-1.3-2.2c-0.4-0.6-0.7-1.3-1.1-2c-0.4-0.7-0.8-1.4-1.2-2.1c-0.4-0.7-0.8-1.5-1.2-2.2
	c-0.4-0.7-0.7-1.4-1.1-2c-0.7-1.3-1.4-2.7-2-4c-0.3-0.6-0.5-1.2-0.8-1.8c-0.4-0.9-0.8-1.7-1.2-2.6c-0.3-0.7-0.6-1.3-0.9-2
	c-0.4-0.8-0.7-1.7-1.1-2.5c-0.3-0.6-0.6-1.3-0.9-2c-0.4-0.9-0.7-1.7-1-2.6c-0.3-0.6-0.5-1.3-0.8-1.9c-0.4-1-0.8-2.1-1.2-3.2
	c-0.2-0.5-0.3-0.9-0.5-1.4c-0.6-1.5-1.1-3-1.6-4.4c-0.2-0.6-0.4-1.1-0.6-1.7c-0.3-1-0.6-2-1-3c-0.2-0.6-0.4-1.3-0.6-1.9
	c-0.3-1-0.6-1.9-0.9-2.9c-0.2-0.6-0.4-1.2-0.5-1.9c-0.3-1.1-0.6-2.1-0.9-3.2c-0.2-0.6-0.3-1.1-0.4-1.6c-0.4-1.6-0.8-3.1-1.2-4.7
	c-0.1-0.3-0.1-0.6-0.2-0.9c-0.3-1.3-0.6-2.6-0.9-4c-0.1-0.6-0.2-1.2-0.3-1.7c-0.2-1.1-0.4-2.1-0.6-3.2c-0.1-0.6-0.2-1.3-0.3-1.9
	c-0.2-1.1-0.4-2.1-0.5-3.2c-0.1-0.6-0.2-1.2-0.3-1.8c-0.2-1.3-0.4-2.6-0.5-3.9c0-0.4-0.1-0.8-0.2-1.2c-0.2-1.6-0.4-3.3-0.6-5
	c0-0.4-0.1-0.9-0.1-1.3c-0.1-1.3-0.2-2.5-0.3-3.8c0-0.6-0.1-1.2-0.1-1.8c-0.1-1.1-0.2-2.2-0.2-3.3c0-0.6-0.1-1.2-0.1-1.9
	c-0.1-1.2-0.1-2.4-0.1-3.5c0-0.6,0-1.1,0-1.6c0-1.7-0.1-3.5-0.1-5.2c0-71.7,34.8-135.3,88.3-174.8C361.5,156.5,304.8,228.6,287,315
	c25-35,53.8-70.5,53.8-70.5s-8.7,14.8-35.7,60.6c-9.4,16-17.3,34.2-23.6,51.2c-0.3,5.5-0.5,11.1-0.5,16.7c0,2.3,0,4.7,0.1,6.9
	c0,0.8,0,1.5,0.1,2.3c0,1.5,0.1,3.1,0.2,4.6c0,0.9,0.1,1.8,0.2,2.6c0.1,1.4,0.2,2.8,0.3,4.2c0.1,0.9,0.1,1.9,0.2,2.8
	c0.1,1.4,0.2,2.7,0.4,4.1c0.1,0.9,0.2,1.8,0.3,2.8c0.1,1.4,0.3,2.8,0.5,4.2c0.1,0.9,0.2,1.7,0.3,2.6c0.2,1.6,0.4,3.1,0.7,4.7
	c0.1,0.7,0.2,1.3,0.3,2c0.3,2.2,0.7,4.4,1.1,6.6c0.1,0.5,0.2,0.9,0.3,1.4c0.3,1.7,0.6,3.5,1,5.2c0.2,0.8,0.3,1.6,0.5,2.4
	c0.3,1.4,0.6,2.7,0.9,4.1c0.2,0.8,0.4,1.8,0.7,2.7c0.3,1.3,0.6,2.5,0.9,3.8c0.2,0.9,0.5,1.8,0.7,2.7c0.3,1.3,0.7,2.5,1,3.8
	c0.3,0.9,0.5,1.8,0.8,2.7c0.4,1.3,0.7,2.5,1.1,3.8c0.2,0.8,0.5,1.7,0.8,2.5c0.4,1.4,0.9,2.9,1.4,4.3c0.2,0.7,0.4,1.3,0.6,1.9
	c0.7,2.1,1.4,4.1,2.1,6.1c0.3,0.8,0.6,1.5,0.9,2.3c0.5,1.3,1,2.6,1.5,3.8c0.4,0.9,0.7,1.8,1.1,2.7c0.5,1.1,0.9,2.2,1.4,3.3
	c0.3,0.7,0.6,1.3,0.9,2c2.5-47.8,12.3-112.2,12.3-112.2s0,17.2,0,70.3c0,30.7,6.8,64.6,12.5,87.8c0,0,0,0,0,0c0.7,1,1.3,2,2,3
	c0.5,0.8,1,1.5,1.5,2.2c0.7,1,1.4,2.1,2.2,3.1c0.5,0.7,1,1.3,1.4,2c0.8,1.1,1.6,2.1,2.4,3.2c0.1,0.2,0.2,0.3,0.3,0.5
	c2,2.7,4.1,5.3,6.3,8c0.3,0.4,0.6,0.7,0.9,1.1c0.9,1.1,1.8,2.2,2.8,3.3c0.4,0.5,0.9,1.1,1.3,1.6c0.9,1.1,1.8,2.1,2.7,3.1
	c0.5,0.5,0.9,1.1,1.4,1.6c0.9,1,1.9,2.1,2.8,3.1c0.5,0.5,1,1,1.4,1.5c1,1,2,2,2.9,3.1c0.4,0.5,0.8,0.9,1.3,1.3
	c1.1,1.1,2.2,2.2,3.2,3.2c0.2,0.2,0.4,0.4,0.6,0.6c4,4,8.1,7.8,12.4,11.5c0.1,0.1,0.2,0.1,0.2,0.2c1.3,1.1,2.5,2.2,3.8,3.3
	c0.3,0.3,0.7,0.6,1,0.8c1.2,1.1,2.5,2.1,3.7,3c0.4,0.3,0.7,0.6,1.1,0.9c1.3,1,2.5,2,3.8,3c0.3,0.2,0.7,0.5,1,0.8c1.3,1,2.6,2,4,3
	c0.2,0.1,0.4,0.3,0.6,0.4c7.7,5.7,15.8,11,24.1,15.9c0.2,0.1,0.4,0.2,0.6,0.4c1.5,0.9,3.1,1.8,4.6,2.6c0.3,0.2,0.5,0.3,0.8,0.5
	c1.6,0.8,3.1,1.7,4.7,2.5c0.2,0.1,0.4,0.2,0.6,0.3c7,3.7,14.1,7.1,21.4,10.2c-5.9-4.5-12.2-9.6-18.8-15.4
	C411.5,599,397.5,579,397.5,579l58.2,44.7c0,0-18-25.3-35.5-57.2c-15.4-27.9-23.8-74.8-23.8-74.8s22.6,59.1,47.6,91
	c29.1,37.1,49,54,58.8,61c5-2.1,11.6-12.2,17.6-23.2c8.1-14.9,14.9-31.4,14.9-31.4s-0.5,15.1-11.5,40.1c-1.2,2.7-2.5,5.3-3.7,7.8
	c-1.1,1.8-14.8,23.4-32.7,37.8c-18.7,15-55.4,20.3-55.4,20.3c23.8,7,39.1,6.3,49.5,3.5c-0.1,0.1-0.1,0.3-0.2,0.4
	c-0.2,0.3-0.4,0.7-0.6,1.1c-0.8,1.5-1.7,3-2.5,4.4c-0.1,0.3-0.3,0.6-0.5,0.8c-0.7,1.3-1.5,2.6-2.2,3.9c-0.2,0.4-0.4,0.6-0.5,1
	c-0.8,1.5-1.6,3-2.5,4.5c-0.2,0.3-0.4,0.7-0.5,1c-0.8,1.4-1.5,2.8-2.3,4.2c-0.1,0.2-0.2,0.4-0.3,0.6c-0.8,1.6-1.6,3.1-2.4,4.6
	c-0.2,0.4-0.4,0.7-0.6,1.1c-0.8,1.5-1.6,3.1-2.5,4.7c0,0.1,0,0.1,0,0.1c-0.8,1.5-1.6,3-2.3,4.6c-0.2,0.4-0.4,0.7-0.5,1.1
	c-0.8,1.5-1.5,3.1-2.3,4.6c-0.1,0.2-0.2,0.4-0.3,0.6c-0.7,1.4-1.3,2.8-2,4.2c-0.2,0.3-0.3,0.7-0.5,1c-0.7,1.5-1.4,3.1-2.1,4.6
	c-0.1,0.3-0.3,0.6-0.4,0.9c-0.6,1.4-1.2,2.7-1.8,4.1c-0.1,0.3-0.2,0.6-0.3,0.8c-0.6,1.5-1.3,3-1.8,4.5c-0.1,0.4-0.3,0.7-0.4,1.1
	c-0.6,1.4-1.1,2.9-1.7,4.3c0,0.1-0.1,0.2-0.1,0.3c-0.6,1.5-1.1,3-1.6,4.5c-0.1,0.3-0.2,0.7-0.4,1c-0.5,1.5-1,3-1.5,4.5
	c0,0.1-0.1,0.2-0.1,0.3c-0.4,1.4-0.8,2.8-1.2,4.1c-0.1,0.3-0.2,0.6-0.3,1c-0.4,1.5-0.8,2.9-1.1,4.3c0,0.2-0.1,0.5-0.1,0.7
	c-0.3,1.3-0.6,2.6-0.8,3.8c-0.1,0.3-0.1,0.5-0.2,0.8c-0.3,1.4-0.5,2.8-0.8,4.2c0,0.3-0.1,0.6-0.1,0.9c-0.2,1.2-0.4,2.5-0.5,3.7
	c0,0.2,0,0.4-0.1,0.6c-0.1,1.4-0.2,2.7-0.3,4c0,0.3,0,0.6,0,0.9c-0.1,1.4-0.1,2.7-0.1,4c0.1,80.3,67.3,150,67.3,150
	s-30-86-32.9-117.7c-6.2-67.7,23.5-102.1,23.5-102.1s-24.1,72.7,19.2,179.1c15.5,38.1,71.9,95.8,71.9,95.8s-33.1-66.6-44.8-116.6
	c-18.8-80.2-2.4-119.9-2.4-119.9s9.7,48.8,33.7,111.5c14.1,36.9,65.6,75,65.6,75s-25.5-48.4-41-92.7c-12.9-36.7-18.2-73.9-20.3-101
	c25.1,62.8,71.5,98.2,71.5,98.2s-18.2-31.9-27.3-63.3c-14.4-49.4-14.9-88.6-10.7-117.2c0.4-1.1,0.4-2.7,0.4-2.7s15.8-49.1,16.6-66.3
	c0.8-17.2,0-41.5,0-41.5s3.6,10.9,5.4,25.3c1.3,11,1.6,24.2-1.6,36C640.1,634.5,657.6,619.1,686,582.7z"/>
</svg>
